<svg xmlns="http://www.w3.org/2000/svg" width="25" height="25" viewBox="0 0 25 25">
    <defs>
        <clipPath id="gt8utgdc6a">
            <path data-name="Rectangle 4498" transform="translate(286 655)" style="fill:#fff" d="M0 0h25v25H0z"/>
        </clipPath>
    </defs>
    <g data-name="email-icn" transform="translate(-286 -655)" style="clip-path:url(#gt8utgdc6a)">
        <path data-name="Path 26126" d="M5.682 28.1A2.266 2.266 0 0 1 4 27.371a2.416 2.416 0 0 1-.7-1.74V9.75A2.441 2.441 0 0 1 4 8a2.257 2.257 0 0 1 1.685-.733h20.2a2.28 2.28 0 0 1 1.7.733 2.431 2.431 0 0 1 .709 1.752v15.879a2.406 2.406 0 0 1-.709 1.74 2.289 2.289 0 0 1-1.7.728zm10.1-9.541a.937.937 0 0 0 .333-.055 2.319 2.319 0 0 0 .323-.154l9.077-6.209a.7.7 0 0 0 .26-.28.885.885 0 0 0 .11-.44.91.91 0 0 0-.433-.781.7.7 0 0 0-.879.021l-8.791 5.88-8.76-5.88a.792.792 0 0 0-.894-.049.835.835 0 0 0-.448.779.81.81 0 0 0 .125.437 1.207 1.207 0 0 0 .265.313l9.057 6.207a2.283 2.283 0 0 0 .322.154.937.937 0 0 0 .336.055z" transform="translate(282.707 649.818)" style="fill:#032541"/>
    </g>
</svg>
