<svg xmlns="http://www.w3.org/2000/svg" width="25" height="25" viewBox="0 0 25 25">
    <defs>
        <clipPath id="l9j1uq5bya">
            <path data-name="Rectangle 4498" transform="translate(286 655.001)" style="fill:#032541" d="M0 0h25v25H0z"/>
        </clipPath>
    </defs>
    <g data-name="mobile-icn" transform="translate(-286 -655.001)" style="clip-path:url(#l9j1uq5bya)">
        <path data-name="Path 26133" d="M22.937 24.393a14.131 14.131 0 0 1-6.337-1.564 21.547 21.547 0 0 1-5.661-4.071A21.309 21.309 0 0 1 6.857 13.1a14.145 14.145 0 0 1-1.564-6.337 1.482 1.482 0 0 1 1.5-1.5h3.582a1.5 1.5 0 0 1 1 .337 1.675 1.675 0 0 1 .533.963l.692 2.994a2.179 2.179 0 0 1-.02.956 1.462 1.462 0 0 1-.435.7l-2.631 2.5a20.226 20.226 0 0 0 2.965 3.775 16.405 16.405 0 0 0 3.639 2.712l2.5-2.551a2 2 0 0 1 .812-.526 1.721 1.721 0 0 1 .947-.024l2.741.636a1.74 1.74 0 0 1 .965.572 1.59 1.59 0 0 1 .35 1.049v3.524A1.465 1.465 0 0 1 24 23.959a1.448 1.448 0 0 1-1.063.434z" transform="translate(283.707 652.734)" style="fill:#032541"/>
    </g>
</svg>
